<svg version="1.1"
  width="80"
  height="80"
  xmlns="http://www.w3.org/2000/svg">

    <rect width="100%" height="100%" fill="#d5d6de" />

    <path d="M35 10 A10 10 0 0 0 25 20 V21 A2 2 0 0 0 27 23 H39 A1 1 0 0 1 39 25
        H20 A10 10 0 0 0 10 35 V45 A10 10 0 0 0 20 55 H21 A2 2 0 0 0 23 53 V43
        A4 4 0 0 1 27 39 H53 A2 2 0 0 0 55 37 V20 A10 10 0 0 0 45 10 Z"
        stroke="black" stroke-width="0.2" fill="#1ad111" />
    
    <path d="M45 70 A10 10 0 0 0 55 60 V59 A2 2 0 0 0 53 57 H41 A1 1 0 0 1 41 55
        H60 A10 10 0 0 0 70 45 V35 A10 10 0 0 0 60 25 H59 A2 2 0 0 0 57 27 V37
        A4 4 0 0 1 53 41 H27 A2 2 0 0 0 25 43 V60 A10 10 0 0 0 35 70 Z"
        stroke="black" stroke-width="0.2" fill="#d1be11" />
    
    <ellipse cx="33" cy="15" rx="3" ry="1.5" fill="white"
          stroke="none" />

    <ellipse cx="47" cy="65" rx="3" ry="1.5" fill="white"
          stroke="none" />

    <text x="62" y="77" font-size="3" fill="grey">DuGo 2022</text>

  </svg>