<?xml version="1.0" encoding="utf-8"?>
<!-- SVG created in online tool: "https://boxy-svg.com" -->
<svg viewBox="0 0 80 80"
     xmlns="http://www.w3.org/2000/svg"
     xmlns:bx="https://boxy-svg.com"
     width="80"
     height="80">
  <path d="M 0 0 L 80 0 L 80 80 L 0 80 Z" style="stroke: rgb(0, 0, 0); stroke-width: 0px; fill: rgb(219, 210, 75);" bx:origin="0.511862 0.5">
    <title>background</title>
  </path>
  <path style="fill: none; stroke-width: 9px; stroke: rgb(54, 43, 43);" d="M 18.427 61.472 C 24.392 72.762 36.93 69.576 37.03 59.45"/>
  <path style="fill: rgb(216, 216, 216); stroke-width: 9px; stroke: rgb(54, 43, 43);" d="M 37.004 60.158 C 37.004 60.86 37.004 31.877 37.004 31.241"/>
  <path style="fill: none; stroke-width: 9px; stroke: rgb(54, 43, 43);" d="M 50.04 63.19 C 54.253 69.655 61.551 71.454 67.227 65.314"/>
  <path style="fill: none; stroke-width: 9px; stroke: rgb(54, 43, 43);" d="M 52.84 35.644 C 57.008 42.109 65.604 42.193 68.746 38.703" transform="matrix(-0.999954, -0.009548, 0.009548, -0.999954, 121.217327, 77.223789)"/>
  <path style="fill: none; stroke-width: 9px; stroke: rgb(54, 43, 43);" d="M 53.613 37.213 C 49.329 41.062 47.961 49.182 58.672 51.894 C 69.383 54.606 70.079 62.23 66.608 65.981"/>
</svg>